<?xml version="1.0" encoding="iso-8859-1"?>
<!-- Uploaded to: SVG Repo, www.svgrepo.com, Generator: SVG Repo Mixer Tools -->
<svg height="800px" width="800px" version="1.1" id="Layer_1" xmlns="http://www.w3.org/2000/svg" xmlns:xlink="http://www.w3.org/1999/xlink" 
	 viewBox="0 0 512 512" xml:space="preserve">
<path style="fill:#13B7E6;" d="M445.512,496.204H66.488C29.92,496.204,0,466.284,0,429.716V193.628
	c0-36.568,29.92-66.488,66.488-66.488h379.024c36.568,0,66.488,29.92,66.488,66.488v236.088
	C512,466.284,482.08,496.204,445.512,496.204z"/>
<path d="M402.152,202.204h-32v-117c0-20.624-16.768-37.408-37.392-37.408H179.248c-20.624,0-37.392,16.784-37.392,37.408v117h-32
	v-117c0-38.264,31.128-69.408,69.392-69.408H332.76c38.264,0,69.392,31.144,69.392,69.408V202.204z"/>
<g>
	<path style="fill:#FFFFFF;" d="M105.8,356.716l14.48,27.48c3.688,7,7.52,14.432,11.144,22.248l0.312-0.08
		c-1.008-8.616-1.432-17.392-1.784-24.928l-1.248-31.608l17.512-5.272l15.712,26.296c4.312,7.456,8.616,14.896,12.544,22.632
		l0.288-0.08c-1.44-8.488-2.408-16.944-3.248-25.592l-2.408-30.144l21.736-6.544l-0.392,77.92l-20.856,6.288l-14.272-23.056
		c-3.856-6.48-7.104-12.488-11.2-20.824l-0.288,0.096c1.36,9.288,1.88,16.296,2.008,23.584l0.408,27.24l-20.856,6.272l-42.2-65.08
		L105.8,356.716z"/>
	<path style="fill:#FFFFFF;" d="M219.248,322.548l14.48,27.464c3.688,7,7.52,14.432,11.144,22.248l0.312-0.08
		c-1.008-8.616-1.432-17.392-1.784-24.928l-1.248-31.608l17.512-5.272l15.712,26.296c4.312,7.456,8.616,14.904,12.544,22.64
		l0.288-0.096c-1.44-8.488-2.408-16.928-3.248-25.592l-2.408-30.144l21.736-6.544l-0.392,77.928l-20.856,6.272l-14.272-23.056
		c-3.856-6.48-7.104-12.488-11.2-20.808l-0.288,0.08c1.36,9.288,1.88,16.296,2.008,23.584l0.408,27.24l-20.856,6.288l-42.2-65.096
		L219.248,322.548z"/>
	<path style="fill:#FFFFFF;" d="M332.704,288.372l14.48,27.464c3.688,7,7.52,14.432,11.144,22.264l0.312-0.096
		c-1.008-8.616-1.432-17.384-1.784-24.928l-1.248-31.592l17.512-5.272l15.712,26.296c4.312,7.456,8.616,14.896,12.544,22.632
		l0.288-0.08c-1.44-8.488-2.408-16.944-3.248-25.608L396,269.3l21.736-6.544l-0.392,77.928l-20.856,6.288l-14.272-23.056
		c-3.856-6.48-7.104-12.496-11.2-20.824l-0.288,0.08c1.36,9.288,1.88,16.296,2.008,23.584l0.408,27.24l-20.856,6.288l-42.2-65.096
		L332.704,288.372z"/>
</g>
</svg>